<svg width="22" height="26" viewBox="0 0 22 26" fill="none" xmlns="http://www.w3.org/2000/svg">
<mask id="mask0_154_15" style="mask-type:luminance" maskUnits="userSpaceOnUse" x="0" y="6" width="22" height="20">
<path d="M0 6.84387H22V26H0V6.84387Z" fill="white"/>
</mask>
<g mask="url(#mask0_154_15)">
<path d="M4.5583 25.9761H12.1403C12.2896 25.9751 12.439 25.9666 12.5874 25.9511C12.7363 25.9352 12.8837 25.9122 13.0306 25.8823C13.177 25.8523 13.3214 25.8149 13.4643 25.7705C13.6072 25.7261 13.7472 25.6747 13.8851 25.6169C14.0231 25.5585 14.1576 25.4937 14.2891 25.4223C14.4206 25.351 14.5481 25.2732 14.6722 25.1894C14.7958 25.1055 14.9154 25.0158 15.0305 24.92C15.1452 24.8242 15.2553 24.7234 15.3605 24.6167C15.4657 24.5104 15.5655 24.3987 15.6598 24.2824C15.7541 24.1662 15.8424 24.0455 15.9248 23.9203C16.0072 23.7955 16.0836 23.6668 16.1531 23.5341C16.223 23.4019 16.2861 23.2663 16.3426 23.1276C16.3992 22.9889 16.4488 22.8477 16.492 22.704C16.5347 22.5604 16.5699 22.4152 16.5987 22.268C16.627 22.1209 16.6483 21.9727 16.6627 21.8236C16.6766 21.6744 16.6831 21.5247 16.6826 21.3751V19.3672C16.8722 19.3153 17.0598 19.2564 17.2449 19.1891C17.4295 19.1222 17.6116 19.0479 17.7903 18.9661C17.9689 18.8843 18.1441 18.795 18.3158 18.6987C18.4875 18.6024 18.6548 18.4992 18.818 18.3894C18.9808 18.2792 19.1391 18.1629 19.293 18.0397C19.4463 17.9165 19.5947 17.7873 19.7376 17.6521C19.8805 17.5169 20.018 17.3762 20.1495 17.2296C20.281 17.0834 20.4061 16.9318 20.5252 16.7746C20.6443 16.618 20.7569 16.4563 20.8626 16.2907C20.9688 16.1246 21.0676 15.9545 21.1594 15.7804C21.2517 15.6058 21.3361 15.4282 21.4135 15.2471C21.4909 15.066 21.5609 14.8819 21.6234 14.6954C21.6855 14.5083 21.7405 14.3192 21.7872 14.1277C21.8343 13.9366 21.873 13.7435 21.9043 13.549C21.9356 13.3544 21.9584 13.1589 21.9738 12.9623C21.9887 12.7658 21.9956 12.5692 21.9946 12.3722C21.9941 12.2764 21.9882 12.1806 21.9783 12.0853C21.9678 11.9896 21.9529 11.8953 21.9331 11.801C21.9137 11.7072 21.8899 11.6144 21.8611 11.5226C21.8323 11.4313 21.7996 11.3415 21.7619 11.2532C21.7247 11.1644 21.683 11.0786 21.6373 10.9943C21.5912 10.91 21.5415 10.8282 21.4874 10.7489C21.4338 10.6696 21.3758 10.5933 21.3147 10.5194C21.2532 10.4456 21.1887 10.3753 21.1202 10.3079C21.0517 10.2406 20.9808 10.1767 20.9058 10.1168C20.8314 10.0565 20.7545 10.0001 20.6741 9.94723C20.5942 9.89436 20.5118 9.84597 20.4269 9.80157C20.3421 9.75667 20.2557 9.71626 20.1669 9.68035C20.078 9.64443 19.9877 9.613 19.8959 9.58556C19.8041 9.55862 19.7113 9.53568 19.617 9.51772C19.5232 9.49976 19.4284 9.48629 19.3331 9.47781C19.2379 9.46883 19.1421 9.46484 19.0463 9.46584H16.6826V7.48387C16.6826 7.44546 16.6791 7.40755 16.6712 7.37013C16.6637 7.33222 16.6528 7.2958 16.6384 7.26038C16.6235 7.22496 16.6057 7.19154 16.5843 7.15961C16.563 7.12769 16.5392 7.09825 16.5119 7.07132C16.4851 7.04388 16.4558 7.01993 16.424 6.99848C16.3923 6.97703 16.3585 6.95907 16.3233 6.94461C16.2881 6.93014 16.2513 6.91867 16.2141 6.91118C16.1764 6.9037 16.1387 6.90021 16.1005 6.90021H0.598087C0.559875 6.90021 0.522158 6.9037 0.484442 6.91118C0.447222 6.91867 0.410498 6.93014 0.375263 6.94461C0.340028 6.95907 0.306282 6.97703 0.274521 6.99848C0.24276 7.01993 0.21348 7.04388 0.186186 7.07132C0.159387 7.09825 0.13507 7.12769 0.113731 7.15961C0.0928877 7.19154 0.0750219 7.22496 0.060134 7.26038C0.0457422 7.2958 0.034328 7.33222 0.0268841 7.37013C0.0194401 7.40755 0.0159662 7.44546 0.0159662 7.48387V21.3751C0.0149738 21.5247 0.0219214 21.6744 0.0358169 21.8236C0.0497124 21.9727 0.0710518 22.1209 0.0998353 22.268C0.128122 22.4152 0.163854 22.5604 0.206533 22.704C0.249212 22.8477 0.298838 22.9889 0.355413 23.1276C0.411987 23.2663 0.475509 23.4019 0.544987 23.5341C0.61496 23.6668 0.691385 23.7955 0.773766 23.9203C0.856146 24.0455 0.944481 24.1662 1.03877 24.2824C1.13306 24.3987 1.23281 24.5104 1.33802 24.6167C1.44273 24.7234 1.5529 24.8242 1.66804 24.92C1.78317 25.0158 1.90277 25.1055 2.02634 25.1894C2.15041 25.2732 2.27795 25.351 2.40946 25.4223C2.54097 25.4937 2.67546 25.5585 2.81342 25.6169C2.95089 25.6747 3.09133 25.7261 3.23426 25.7705C3.37718 25.8149 3.52159 25.8523 3.66799 25.8823C3.81439 25.9122 3.96228 25.9352 4.11066 25.9511C4.25954 25.9666 4.40842 25.9751 4.5583 25.9761ZM19.0463 10.6327C19.1624 10.6302 19.2771 10.6387 19.3912 10.6591C19.5054 10.6791 19.6165 10.7105 19.7247 10.7529C19.8324 10.7953 19.9351 10.8477 20.0324 10.9105C20.1297 10.9739 20.22 11.0457 20.3034 11.1265C20.3862 11.2079 20.4607 11.2961 20.5262 11.3919C20.5917 11.4877 20.6468 11.589 20.6919 11.6962C20.7371 11.803 20.7713 11.9132 20.7947 12.0275C20.818 12.1412 20.8299 12.256 20.8304 12.3722C20.8314 12.5308 20.8259 12.6895 20.8145 12.8476C20.8031 13.0062 20.7852 13.1639 20.7614 13.3205C20.7376 13.4777 20.7073 13.6333 20.6711 13.7879C20.6354 13.9426 20.5932 14.0952 20.545 14.2464C20.4969 14.3981 20.4428 14.5467 20.3832 14.6939C20.3232 14.841 20.2577 14.9852 20.1867 15.1274C20.1153 15.2691 20.0388 15.4077 19.957 15.5434C19.8746 15.6791 19.7877 15.8118 19.6949 15.9405C19.6026 16.0697 19.5054 16.1944 19.4031 16.3157C19.3009 16.4369 19.1942 16.5541 19.0825 16.6669C18.9714 16.7796 18.8557 16.8879 18.7356 16.9916C18.6155 17.0954 18.492 17.1942 18.3639 17.2879C18.2364 17.3822 18.1054 17.471 17.9709 17.5543C17.8359 17.6381 17.6984 17.7165 17.5575 17.7888C17.4166 17.8616 17.2731 17.929 17.1272 17.9903C16.9813 18.0517 16.833 18.1071 16.6826 18.1569V10.6327H19.0463ZM1.18021 8.06754H15.5179V21.3751C15.5188 21.4868 15.5139 21.5981 15.5035 21.7093C15.4935 21.8206 15.4777 21.9308 15.4568 22.0406C15.4355 22.1498 15.4092 22.2581 15.3779 22.3653C15.3461 22.4721 15.3094 22.5773 15.2672 22.6811C15.2251 22.7844 15.1784 22.8856 15.1268 22.9844C15.0747 23.0832 15.0181 23.179 14.9571 23.2722C14.8955 23.3655 14.83 23.4553 14.7601 23.5421C14.6901 23.6289 14.6156 23.7122 14.5377 23.7916C14.4593 23.8714 14.3774 23.9467 14.2921 24.018C14.2062 24.0894 14.1174 24.1567 14.0251 24.2196C13.9333 24.2819 13.838 24.3403 13.7402 24.3937C13.6425 24.4471 13.5422 24.4954 13.4395 24.5388C13.3373 24.5822 13.2325 24.6207 13.1263 24.6541C13.0201 24.687 12.9124 24.7149 12.8033 24.7379C12.6941 24.7603 12.5844 24.7778 12.4738 24.7893C12.3626 24.8012 12.2519 24.8077 12.1403 24.8087H4.5583C4.44664 24.8077 4.33547 24.8012 4.2248 24.7893C4.11414 24.7778 4.00446 24.7603 3.89528 24.7379C3.7861 24.7149 3.67841 24.687 3.57221 24.6541C3.46552 24.6207 3.3613 24.5822 3.25857 24.5388C3.15634 24.4954 3.0561 24.4471 2.95833 24.3937C2.86007 24.3403 2.76528 24.2819 2.67298 24.2196C2.58117 24.1567 2.49234 24.0894 2.40648 24.018C2.32113 23.9467 2.23924 23.8714 2.16083 23.7916C2.08292 23.7122 2.00848 23.6289 1.9385 23.5421C1.86853 23.4553 1.80302 23.3655 1.74149 23.2722C1.68045 23.179 1.62387 23.0832 1.57176 22.9844C1.52015 22.8856 1.47301 22.7844 1.43132 22.6811C1.38914 22.5773 1.35241 22.4721 1.32065 22.3653C1.28889 22.2581 1.26259 22.1498 1.24175 22.0406C1.2209 21.9308 1.20502 21.8201 1.1946 21.7093C1.18467 21.5981 1.17971 21.4868 1.18021 21.3751V8.06754Z" fill="white"/>
</g>
<path d="M7.58792 5.07834C7.62514 5.08682 7.66236 5.09131 7.70058 5.09231C7.73829 5.0938 7.77601 5.09081 7.81372 5.08432C7.85094 5.07834 7.88767 5.06836 7.9229 5.05489C7.95863 5.04142 7.99238 5.02446 8.02464 5.00401C8.0564 4.98405 8.08667 4.96061 8.11397 4.93467C8.14176 4.90873 8.16657 4.87979 8.18841 4.84886C8.21074 4.81793 8.2296 4.78501 8.24498 4.75059C8.26036 4.71567 8.27277 4.67975 8.28121 4.64283C8.28964 4.60542 8.29461 4.56801 8.2961 4.52959C8.29709 4.49168 8.2951 4.45377 8.28865 4.41585C8.2827 4.37844 8.27277 4.34152 8.25987 4.30561C8.24647 4.27019 8.2296 4.23577 8.20975 4.20334C8.18989 4.17091 8.16707 4.14048 8.14126 4.11255C8.11496 4.08461 8.08667 4.05917 8.0559 4.03672C8.02513 4.01427 7.99238 3.99482 7.95814 3.97885C7.9234 3.96289 7.88767 3.95042 7.85094 3.94144C7.64351 3.89006 5.83709 3.36526 6.16314 0.652466C6.16761 0.614054 6.1686 0.576141 6.16562 0.538228C6.16265 0.499816 6.1557 0.462401 6.14528 0.425486C6.13535 0.38857 6.12145 0.353151 6.10409 0.319229C6.08672 0.285307 6.06637 0.252881 6.04255 0.222949C6.01922 0.193018 5.99292 0.165581 5.96364 0.140638C5.93486 0.115695 5.90359 0.0937449 5.87034 0.0752872C5.83709 0.0563305 5.80236 0.040866 5.76613 0.0293922C5.7299 0.0174196 5.69268 0.00893914 5.65496 0.00444932C5.61675 -4.03726e-05 5.57904 -0.00103806 5.54082 0.00195503C5.50261 0.00494824 5.46539 0.0114334 5.42867 0.0219094C5.39194 0.0318865 5.35621 0.0458545 5.32247 0.0633146C5.28822 0.0802757 5.25597 0.100729 5.22619 0.124175C5.19592 0.148121 5.16862 0.174061 5.14381 0.203494C5.119 0.232428 5.09716 0.263357 5.0783 0.29678C5.05944 0.330204 5.04406 0.364625 5.03215 0.401042C5.02024 0.437459 5.0118 0.474873 5.00734 0.512786C4.63861 3.57478 6.53385 4.83789 7.58792 5.07834Z" fill="white"/>
<path d="M11.8484 5.07837C11.8856 5.08686 11.9228 5.09135 11.961 5.09234C11.9987 5.09384 12.0365 5.09085 12.0742 5.08436C12.1114 5.07837 12.1481 5.0684 12.1833 5.05493C12.2191 5.04146 12.2528 5.0245 12.2851 5.00405C12.3168 4.98409 12.3471 4.96064 12.3744 4.9347C12.4022 4.90876 12.427 4.87983 12.4493 4.8489C12.4712 4.81797 12.49 4.78505 12.5054 4.75063C12.5213 4.7157 12.5332 4.67979 12.5417 4.64287C12.5501 4.60546 12.5551 4.56804 12.5565 4.52963C12.558 4.49172 12.5555 4.4538 12.5491 4.41589C12.5431 4.37848 12.5332 4.34156 12.5203 4.30564C12.5069 4.27022 12.49 4.2358 12.4702 4.20338C12.4503 4.17095 12.4275 4.14052 12.4017 4.11259C12.3759 4.08465 12.3476 4.05921 12.3163 4.03676C12.2856 4.01431 12.2533 3.99485 12.2186 3.97889C12.1838 3.96293 12.1481 3.95046 12.1114 3.94148C11.9044 3.89009 10.0975 3.3653 10.4236 0.652504C10.4281 0.614092 10.429 0.576178 10.4261 0.538265C10.4231 0.499853 10.4166 0.462438 10.4062 0.425523C10.3958 0.388607 10.3819 0.353189 10.3645 0.319266C10.3472 0.284845 10.3268 0.252918 10.3035 0.222986C10.2797 0.192556 10.2534 0.165119 10.2246 0.140176C10.1953 0.115732 10.164 0.0937821 10.1308 0.0748255C10.0975 0.0563677 10.0628 0.0409032 10.0266 0.0289306C9.99035 0.016958 9.95313 0.00897629 9.91541 0.00398765C9.8772 -0.000502047 9.83948 -0.00100091 9.80127 0.00149335C9.76306 0.00448644 9.72584 0.0114705 9.68911 0.0214477C9.65239 0.0319237 9.61666 0.0453929 9.58291 0.0628529C9.54867 0.0803129 9.51641 0.100766 9.48664 0.124213C9.45636 0.147659 9.42907 0.174098 9.40426 0.203032C9.37944 0.231966 9.35761 0.263394 9.33875 0.296818C9.31989 0.329742 9.30451 0.364662 9.2926 0.401079C9.28068 0.437496 9.27225 0.47491 9.26778 0.512823C8.89906 3.57482 10.7948 4.83793 11.8484 5.07837Z" fill="white"/>
</svg>
