<svg width="117" height="79" viewBox="0 0 117 79" fill="none" xmlns="http://www.w3.org/2000/svg">
<mask id="mask0_123_768" style="mask-type:luminance" maskUnits="userSpaceOnUse" x="5" y="0" width="49" height="57">
<path d="M5.61554 0H53.2775V56.4993H5.61554V0Z" fill="white"/>
</mask>
<g mask="url(#mask0_123_768)">
<path d="M103.584 33.2273C103.594 22.8145 103.627 12.4017 103.606 1.98726C103.606 1.59529 103.221 1.03304 102.861 0.864371C102.571 0.729432 102.002 1.00252 101.643 1.2226C101.36 1.39449 101.202 1.76557 100.992 2.05151C92.7854 13.2964 84.5802 24.5414 76.3735 35.7863C76.0893 36.1766 75.7722 36.5445 75.4355 36.9654C75.2006 36.7196 75.0774 36.6184 74.9871 36.4963C67.9778 27.004 60.9735 17.5117 53.9576 8.02257C53.519 7.42819 53.0903 6.79366 52.5236 6.3294C46.3997 1.33023 39.2787 -0.552489 31.4169 0.175218C14.2248 1.76396 2.33515 18.1944 6.48945 34.5413C9.52674 46.4898 19.8624 54.991 32.4748 55.7846C40.082 56.2617 46.9369 54.2954 52.8028 49.3991C52.9819 49.2481 53.133 49.0954 53.2628 48.9332C52.6648 48.4384 52.0702 47.934 51.4838 47.4264C51.3753 47.6368 51.2062 47.836 51.0353 47.9613C44.8737 52.5348 37.9942 54.7227 30.2474 53.4697C17.3163 51.3782 8.1584 40.9124 7.90543 28.1044C7.64096 14.829 18.752 3.03625 32.2925 2.16236C39.0126 1.72862 45.01 3.52942 50.3191 7.53422C51.0977 8.12056 51.8846 8.77116 52.4562 9.54384C63.7184 24.792 74.9493 40.0626 86.1851 55.3267C86.3937 55.6127 86.5531 56.0352 86.8356 56.1444C87.2923 56.3227 87.9116 56.4641 88.3124 56.2906C88.5522 56.1878 88.6623 55.4167 88.5522 55.0183C88.4093 54.5171 88.0068 54.0753 87.6799 53.6336C84.3075 49.0858 80.9466 44.5268 77.5315 40.0079C76.909 39.1871 76.886 38.6361 77.5135 37.7798C85.2127 27.3317 92.8675 16.853 100.534 6.38402C100.772 6.05792 101.035 5.75431 101.285 5.43784C101.377 5.47318 101.47 5.50692 101.56 5.54226C101.56 6.03382 101.56 6.52217 101.56 7.01374C101.56 22.8498 101.562 38.6859 101.565 54.5219C101.565 54.9508 101.498 55.4151 101.648 55.7942C101.766 56.0946 102.167 56.4882 102.439 56.4834C102.789 56.4785 103.231 56.1894 103.453 55.8922C103.635 55.648 103.589 55.2191 103.589 54.8705C103.589 47.6609 103.576 40.4449 103.584 33.2273Z" fill="white"/>
</g>
<mask id="mask1_123_768" style="mask-type:luminance" maskUnits="userSpaceOnUse" x="53" y="0" width="51" height="57">
<path d="M53.6274 0H103.379V56.4993H53.6274V0Z" fill="white"/>
</mask>
<g mask="url(#mask1_123_768)">
<path d="M103.584 33.2273C103.594 22.8145 103.627 12.4017 103.606 1.98726C103.606 1.59529 103.221 1.03304 102.861 0.864371C102.571 0.729432 102.002 1.00252 101.643 1.2226C101.36 1.39449 101.202 1.76557 100.992 2.05151C92.7854 13.2964 84.5802 24.5414 76.3735 35.7863C76.0893 36.1766 75.7722 36.5445 75.4355 36.9654C75.2006 36.7196 75.0774 36.6184 74.9871 36.4963C67.9778 27.004 60.9735 17.5117 53.9576 8.02257C53.519 7.42819 53.0903 6.79366 52.5236 6.3294C46.3997 1.33023 39.2787 -0.552489 31.4169 0.175218C14.2248 1.76396 2.33515 18.1944 6.48945 34.5413C9.52674 46.4898 19.8624 54.991 32.4748 55.7846C40.082 56.2617 46.9369 54.2954 52.8028 49.3991C52.9819 49.2481 53.133 49.0954 53.2628 48.9332C52.6648 48.4384 52.0702 47.934 51.4838 47.4264C51.3753 47.6368 51.2062 47.836 51.0353 47.9613C44.8737 52.5348 37.9942 54.7227 30.2474 53.4697C17.3163 51.3782 8.1584 40.9124 7.90543 28.1044C7.64096 14.829 18.752 3.03625 32.2925 2.16236C39.0126 1.72862 45.01 3.52942 50.3191 7.53422C51.0977 8.12056 51.8846 8.77116 52.4562 9.54384C63.7184 24.792 74.9493 40.0626 86.1851 55.3267C86.3937 55.6127 86.5531 56.0352 86.8356 56.1444C87.2923 56.3227 87.9116 56.4641 88.3124 56.2906C88.5522 56.1878 88.6623 55.4167 88.5522 55.0183C88.4093 54.5171 88.0068 54.0753 87.6799 53.6336C84.3075 49.0858 80.9466 44.5268 77.5315 40.0079C76.909 39.1871 76.886 38.6361 77.5135 37.7798C85.2127 27.3317 92.8675 16.853 100.534 6.38402C100.772 6.05792 101.035 5.75431 101.285 5.43784C101.377 5.47318 101.47 5.50692 101.56 5.54226C101.56 6.03382 101.56 6.52217 101.56 7.01374C101.56 22.8498 101.562 38.6859 101.565 54.5219C101.565 54.9508 101.498 55.4151 101.648 55.7942C101.766 56.0946 102.167 56.4882 102.439 56.4834C102.789 56.4785 103.231 56.1894 103.453 55.8922C103.635 55.648 103.589 55.2191 103.589 54.8705C103.589 47.6609 103.576 40.4449 103.584 33.2273Z" fill="#90ADC6"/>
</g>
<path d="M6.48032 78.0138C6.48032 78.0138 5.65735 78.711 4.22987 78.711C2.85331 78.711 0.898539 78.1102 0.898539 74.9472C0.898539 71.8323 3.03729 71.1962 4.22987 71.1962C5.68199 71.1962 6.48032 71.7616 6.48032 71.7616V71.4966C6.48032 71.4966 5.63271 71.0034 4.22987 71.0034C2.0172 71.0034 0 72.1584 0 74.9472C0 78.1584 2.57078 78.915 4.11981 78.915C5.65735 78.915 6.48032 78.2789 6.48032 78.2789V78.0138Z" fill="white"/>
<path d="M11.6036 71.0034C9.39098 71.0034 7.37378 72.1584 7.37378 74.9472C7.37378 78.1584 10.0546 78.915 11.6036 78.915C13.1412 78.915 15.8335 78.1584 15.8335 74.9472C15.8335 72.1584 13.8048 71.0034 11.6036 71.0034ZM11.6036 78.711C10.214 78.711 8.27232 78.1102 8.27232 74.9472C8.27232 71.8323 10.4111 71.1962 11.6036 71.1962C12.7962 71.1962 14.9366 71.8323 14.9366 74.9472C14.9366 78.1102 12.9818 78.711 11.6036 78.711Z" fill="white"/>
<path d="M23.1333 71.148H22.9362V77.5448L16.8862 71.0034H16.8616V78.6982H17.0587V72.3737L23.0955 78.915H23.1333V71.148Z" fill="white"/>
<path d="M29.6947 71.1479H24.0637V71.3407H26.4373V78.6981H27.3227V71.3407H29.6947V71.1479Z" fill="white"/>
<path d="M35.9877 78.6981L33.0983 75.1399C34.0083 75.0194 35.3849 74.5873 35.3849 73.0355C35.3849 71.3761 33.5402 71.1479 32.9127 71.1479C32.3114 71.1479 30.5768 71.1479 30.5768 71.1479V78.6981H31.4507V75.1881H32.0158L34.8691 78.6981H35.9877ZM31.4507 71.3407H32.4461C33.7011 71.3407 34.4502 71.8451 34.4502 73.1672C34.4502 74.515 33.5648 74.9953 32.1258 74.9953H31.4507V71.3407Z" fill="white"/>
<path d="M42.7103 78.6982H43.6565L40.2759 71.0034H40.2135L36.7097 78.6982H36.9807L38.3687 75.6685H41.3699L42.7103 78.6982ZM38.4558 75.4644L39.8948 72.3014L41.2828 75.4644H38.4558Z" fill="white"/>
<path d="M44.4029 78.1341V78.4104C44.4029 78.4104 45.1536 79 46.4809 79C47.8081 79 49.0746 78.0972 49.0746 76.7622C49.0746 74.0699 45.129 74.8634 45.129 72.6739C45.129 71.8209 45.7302 71.1237 46.788 71.1237C47.8328 71.1237 48.5096 71.6169 48.5096 71.6169L48.4981 71.3647C48.4981 71.3647 47.7589 70.9197 46.7765 70.9197C45.8041 70.9197 44.439 71.4964 44.439 73C44.439 75.6923 48.3749 74.6819 48.3749 77.0626C48.3749 78.2305 47.4648 78.8072 46.4809 78.8072C45.423 78.8072 44.8333 78.4586 44.4029 78.1341Z" fill="white"/>
<path d="M55.4782 71.1479H49.8472V71.3407H52.2208V78.6981H53.1062V71.3407H55.4782V71.1479Z" fill="white"/>
<path d="M67.1419 71.0034H67.1172L63.6627 77.4002L60.2575 71.0034H60.2197L59.1618 78.6982H59.3589L60.1835 72.7351L63.2455 78.4941H63.2931L66.4536 72.6388L67.1797 78.6982H68.0651L67.1419 71.0034Z" fill="white"/>
<path d="M74.8721 78.6982H75.8182L72.4376 71.0034H72.3752L68.8714 78.6982H69.1424L70.5305 75.6685H73.5316L74.8721 78.6982ZM70.6176 75.4644L72.0565 72.3014L73.4446 75.4644H70.6176Z" fill="white"/>
<path d="M82.135 78.6981L79.2455 75.1399C80.1556 75.0194 81.5321 74.5873 81.5321 73.0355C81.5321 71.3761 79.6874 71.1479 79.0599 71.1479C78.4587 71.1479 76.724 71.1479 76.724 71.1479V78.6981H77.5979V75.1881H78.163L81.0163 78.6981H82.135ZM77.5979 71.3407H78.5934C79.8484 71.3407 80.5974 71.8451 80.5974 73.1672C80.5974 74.515 79.712 74.9953 78.2731 74.9953H77.5979V71.3407Z" fill="white"/>
<path d="M83.0163 78.6981H83.8902V71.1479H83.0163V78.6981ZM84.8495 74.3335L88.0215 71.1479H87.739L84.0988 74.8025L87.5041 78.6981H88.6605L84.8495 74.3335Z" fill="white"/>
<path d="M93.4655 71.3407V71.1479H89.5543V78.6981H93.4655V78.5069H90.4282V74.8507H93.1321V74.658H90.4282V71.3407H93.4655Z" fill="white"/>
<path d="M99.9049 71.1479H94.2739V71.3407H96.6475V78.6981H97.5329V71.3407H99.9049V71.1479Z" fill="white"/>
<path d="M100.91 78.6981H101.784V71.1479H100.91V78.6981Z" fill="white"/>
<path d="M109.295 71.148H109.098V77.5448L103.048 71.0034H103.024V78.6982H103.221V72.3737L109.258 78.915H109.295V71.148Z" fill="white"/>
<path d="M115.021 74.8508V75.0548H116.128V78.4347C115.709 78.5905 115.157 78.711 114.541 78.711C112.624 78.711 111.21 77.7729 111.21 74.9472C111.21 71.8323 113.238 71.1962 114.541 71.1962C115.993 71.1962 116.791 71.5319 116.791 71.5319V71.2926C116.791 71.2926 115.944 71.0034 114.541 71.0034C112.328 71.0034 110.311 72.1584 110.311 74.9472C110.311 78.1584 112.882 78.915 114.431 78.915C115.968 78.915 117 78.2789 117 78.2789V74.8508H115.021Z" fill="white"/>
</svg>
