<svg width="30" height="28" viewBox="0 0 30 28" fill="none" xmlns="http://www.w3.org/2000/svg">
<path d="M24.7169 7.85081C24.678 7.79831 24.6246 7.76005 24.5627 7.74136C24.2816 7.65371 22.8759 7.2177 20.3455 6.43197C19.4408 5.81221 18.9379 5.4674 18.8372 5.39888C19.9787 4.97131 20.5598 3.69218 20.1347 2.54296C19.7095 1.3933 18.4403 0.808236 17.2989 1.23625C16.4367 1.55925 15.8639 2.38813 15.8631 3.31489C15.8635 3.48263 15.9992 3.61788 16.1658 3.61744C16.244 3.61655 16.3196 3.58585 16.3757 3.53023C16.4331 3.47328 16.4654 3.39631 16.4663 3.31489C16.4561 2.42195 17.1667 1.6905 18.0528 1.68027C18.9393 1.67048 19.6658 2.38546 19.6759 3.27841C19.6857 4.17091 18.9755 4.90235 18.089 4.91259C18.0864 4.91259 18.0833 4.91259 18.0802 4.91259C17.9997 4.91214 17.9228 4.94373 17.8658 5.00068L15.3138 6.43197L14.783 6.62017L14.1798 6.43197C13.2747 5.81221 12.7718 5.4674 12.6711 5.39888C13.8126 4.97131 14.3937 3.69218 13.9686 2.54296C13.5439 1.3933 12.2742 0.808236 11.1328 1.23625C10.2706 1.55925 9.69785 2.38813 9.69697 3.31489C9.69697 3.48263 9.83219 3.61833 9.99836 3.61833C10.165 3.61833 10.3002 3.48263 10.3002 3.31489C10.2905 2.42195 11.0006 1.6905 11.8871 1.68027C12.7732 1.67048 13.4997 2.38546 13.5098 3.27841C13.5196 4.17091 12.8094 4.90235 11.9229 4.91259C11.8429 4.91214 11.7656 4.94373 11.709 5.00068L9.15385 6.43197C6.91862 7.21948 5.67683 7.65683 5.42847 7.74448C5.37146 7.76494 5.32197 7.80187 5.28661 7.85081C4.86856 8.42475 1.52367 13.0185 1.10562 13.5929C1.05789 13.6583 1.03844 13.7402 1.05126 13.8207C1.06363 13.9003 1.10738 13.9706 1.1719 14.0182C1.47904 14.2425 3.93567 16.039 4.2428 16.2633C4.31174 16.3136 4.39791 16.3318 4.48099 16.3149C4.56319 16.298 4.6339 16.2468 4.67721 16.1752C4.74128 16.0706 5.05947 15.547 5.63352 14.6042C5.63352 21.8412 5.63352 25.8619 5.63352 26.6659C5.63352 26.8336 5.76875 26.9697 5.93491 26.9697C7.7481 26.9697 22.2523 26.9697 24.0651 26.9697C24.2317 26.9697 24.3669 26.8336 24.3669 26.6659C24.3669 25.8619 24.3669 21.8412 24.3669 14.6042C24.9405 15.547 25.2591 16.0706 25.3232 16.1752C25.367 16.2473 25.4395 16.2984 25.5221 16.3149C25.6043 16.3314 25.6891 16.3122 25.7576 16.2633C26.0652 16.0395 28.5245 14.2509 28.8316 14.0271C28.8961 13.98 28.9395 13.9092 28.9523 13.8296C28.9646 13.7495 28.9456 13.6676 28.8979 13.6018C28.0618 12.4517 25.553 9.00092 24.7169 7.85081ZM16.0588 6.69937L18.0651 5.58441L19.679 6.69937C19.8328 6.80659 19.9186 6.86621 19.9354 6.87822C20.0507 7.38454 19.9468 7.91621 19.649 8.33977C19.5195 8.49816 19.3622 8.63164 19.1841 8.73174C19.1205 8.64365 18.6087 7.9389 18.5446 7.85081C18.5062 7.79831 18.4523 7.76005 18.3908 7.74136C18.1261 7.65861 16.0071 6.99524 15.7424 6.91204C15.7402 6.89869 15.7402 6.88579 15.7424 6.87244C15.7844 6.84931 15.89 6.79147 16.0588 6.69937ZM11.9052 5.58441C13.0273 6.36079 13.6504 6.79236 13.7754 6.87822C13.8965 7.38276 13.7967 7.91488 13.501 8.33977C12.9698 9.01427 11.9229 9.05698 11.9322 9.05965C11.8385 9.05965 9.7058 8.95331 9.59135 6.87244C9.89937 6.70026 10.6714 6.27136 11.9052 5.58441ZM17.6184 13.5382C17.6184 14.3929 17.6184 18.6676 17.6184 26.362H6.23674C6.23674 18.6605 6.23674 14.3813 6.23674 13.5257C6.23541 13.358 6.09974 13.2232 5.93314 13.2241C5.82929 13.225 5.73339 13.2792 5.6786 13.3678C5.58889 13.5155 5.14034 14.2527 4.33339 15.5794L1.77203 13.7233L5.71793 8.28816C7.68712 7.58831 8.78087 7.19945 9.00006 7.12159C9.22014 9.05965 10.9639 9.63715 11.9291 9.6674C11.9835 9.6674 13.2624 9.61579 13.9717 8.71973C14.3141 8.26547 14.4728 7.69731 14.4149 7.13049C14.6633 7.20791 15.905 7.59498 18.1403 8.29128L22.0623 13.7233L19.5009 15.595C18.6936 14.2678 18.2455 13.5306 18.1557 13.3829C18.0921 13.2708 17.9648 13.2112 17.8389 13.2343C17.7041 13.2717 17.6131 13.3976 17.6184 13.5382ZM25.6821 15.5794C24.8676 14.2527 24.4151 13.5155 24.3245 13.3678C24.2538 13.2512 24.1141 13.1965 23.9838 13.2343C23.849 13.2717 23.758 13.3976 23.7637 13.5382C23.7637 14.3929 23.7637 18.6676 23.7637 26.362H18.2097V14.6042C18.7837 15.547 19.1023 16.0706 19.166 16.1752C19.2097 16.2468 19.28 16.298 19.3622 16.3149C19.4453 16.3318 19.5319 16.3136 19.6004 16.2633C19.9071 16.0395 22.3588 14.2509 22.6655 14.0271C22.73 13.98 22.7734 13.9092 22.7862 13.8296C22.7985 13.7495 22.7795 13.6676 22.7318 13.6018C22.4145 13.1644 19.873 9.66206 19.5553 9.22382C19.7749 9.09213 19.9689 8.92083 20.1285 8.71973C20.474 8.2677 20.6327 7.6982 20.5717 7.13049C20.8196 7.20791 22.0583 7.59498 24.2883 8.29128L28.2311 13.7233L25.6821 15.5794Z" fill="white" stroke="white" stroke-width="0.4"/>
</svg>
