<svg width="42" height="42" viewBox="0 0 42 42" fill="none" xmlns="http://www.w3.org/2000/svg">
<circle cx="21" cy="21" r="21" fill="white" fill-opacity="0.1"/>
<path d="M24.2732 30H16.7543C14.1318 30 12 27.8682 12 25.2534V17.7466C12 15.1284 14.1318 13 16.7543 13H24.2732C26.8956 13 29.0275 15.1284 29.0275 17.7466V25.2534C29.0275 27.8682 26.8923 30 24.2732 30ZM16.7543 14.375C14.8932 14.375 13.3772 15.8885 13.3772 17.7466V25.2534C13.3772 27.1115 14.8932 28.625 16.7543 28.625H24.2732C26.1343 28.625 27.6502 27.1115 27.6502 25.2534V17.7466C27.6502 15.8885 26.1343 14.375 24.2732 14.375H16.7543Z" fill="white"/>
<path d="M20.5136 25.9723C18.0434 25.9723 16.0334 23.9656 16.0334 21.4993C16.0334 19.0331 18.0434 17.0264 20.5136 17.0264C22.9838 17.0264 24.9938 19.0331 24.9938 21.4993C24.9938 23.9656 22.9838 25.9723 20.5136 25.9723ZM20.5136 18.4014C18.8048 18.4014 17.4106 19.7899 17.4106 21.4993C17.4106 23.2088 18.8014 24.5973 20.5136 24.5973C22.2224 24.5973 23.6166 23.2088 23.6166 21.4993C23.6166 19.7899 22.2224 18.4014 20.5136 18.4014Z" fill="white"/>
<path d="M25.1801 17.5374C24.7944 17.5374 24.4831 17.2266 24.4831 16.8415C24.4831 16.4563 24.7944 16.1455 25.1801 16.1455C25.5659 16.1455 25.8772 16.4563 25.8772 16.8415C25.8772 17.2266 25.5659 17.5374 25.1801 17.5374Z" fill="white"/>
</svg>
