<svg width="42" height="42" viewBox="0 0 42 42" fill="none" xmlns="http://www.w3.org/2000/svg">
<circle cx="21" cy="21" r="21" fill="white" fill-opacity="0.1"/>
<path d="M16.3331 14.6674C16.3329 15.1094 16.1571 15.5332 15.8444 15.8456C15.5317 16.158 15.1077 16.3334 14.6657 16.3331C14.2237 16.3329 13.7999 16.1571 13.4875 15.8444C13.1752 15.5317 12.9998 15.1077 13 14.6657C13.0002 14.2237 13.176 13.7999 13.4887 13.4875C13.8014 13.1752 14.2254 12.9998 14.6674 13C15.1094 13.0002 15.5332 13.176 15.8456 13.4887C16.158 13.8014 16.3334 14.2254 16.3331 14.6674ZM16.3831 17.5672H13.05V28H16.3831V17.5672ZM21.6495 17.5672H18.333V28H21.6162V22.5253C21.6162 19.4755 25.591 19.1922 25.591 22.5253V28H28.8824V21.392C28.8824 16.2507 22.9994 16.4423 21.6162 18.9672L21.6495 17.5672Z" fill="white"/>
</svg>
