<svg width="117" height="79" viewBox="0 0 117 79" fill="none" xmlns="http://www.w3.org/2000/svg">
<mask id="mask0_72_1466" style="mask-type:luminance" maskUnits="userSpaceOnUse" x="2" y="0" width="48" height="59">
<path d="M2.03644 0H49.9953V58.184H2.03644V0Z" fill="white"/>
</mask>
<g mask="url(#mask0_72_1466)">
<path d="M100.279 34.2678C100.289 23.5644 100.32 12.8628 100.3 2.1611C100.3 1.75661 99.9163 1.17876 99.5567 1.00541C99.2661 0.866728 98.6979 1.1474 98.3384 1.37523C98.056 1.55189 97.8967 1.93161 97.6882 2.22549C89.4851 13.7824 81.2837 25.3409 73.0807 36.8978C72.7966 37.2973 72.4797 37.677 72.1431 38.1096C71.9083 37.857 71.7852 37.753 71.6949 37.6259C64.6888 27.8702 57.686 18.1145 50.675 8.36219C50.2366 7.75133 49.8064 7.09919 49.2416 6.62206C43.1205 1.48585 36.0028 -0.449105 28.1446 0.29879C10.9602 1.92996 -0.925659 18.8179 3.2284 35.6166C6.26432 47.8966 16.5936 56.6336 29.202 57.4509C36.8057 57.9412 43.6574 55.9188 49.5191 50.8866C49.6981 50.733 49.8508 50.5745 49.9788 50.4094C49.3828 49.8993 48.7884 49.3809 48.2006 48.8592C48.0923 49.0754 47.9248 49.2802 47.754 49.4106C41.5935 54.1109 34.7188 56.3579 26.9739 55.0702C14.0503 52.9222 4.8966 42.1661 4.6421 29.0028C4.37939 15.3574 15.4837 3.23919 29.0197 2.34106C35.7368 1.89364 41.7315 3.74604 47.0382 7.86029C47.8164 8.4629 48.6029 9.1332 49.1743 9.92567C60.4297 25.5968 71.6571 41.291 82.8879 56.9803C83.0964 57.2726 83.2557 57.7068 83.5381 57.819C83.9945 58.0023 84.6135 58.1476 85.0125 57.9693C85.2539 57.8636 85.3639 57.0711 85.2539 56.6617C85.111 56.1466 84.7088 55.6942 84.382 55.2386C81.0112 50.5646 77.6518 45.8791 74.2366 41.2366C73.616 40.3913 73.593 39.825 74.2202 38.945C81.9142 28.2087 89.5672 17.4376 97.2301 6.67819C97.4665 6.34304 97.7309 6.031 97.9804 5.70576C98.0707 5.74208 98.166 5.77675 98.2563 5.81307C98.2563 6.31827 98.2563 6.82017 98.2563 7.32537C98.2563 23.6008 98.2579 39.8762 98.2612 56.1532C98.2612 56.5924 98.1939 57.0695 98.3433 57.4591C98.4599 57.7695 98.8621 58.1724 99.1347 58.1691C99.4844 58.1641 99.9245 57.8653 100.148 57.5598C100.33 57.3089 100.282 56.8697 100.282 56.5115C100.282 49.1002 100.271 41.684 100.279 34.2678Z" fill="#1E3653"/>
</g>
<mask id="mask1_72_1466" style="mask-type:luminance" maskUnits="userSpaceOnUse" x="50" y="0" width="51" height="59">
<path d="M50.345 0H100.072V58.184H50.345V0Z" fill="white"/>
</mask>
<g mask="url(#mask1_72_1466)">
<path d="M100.279 34.2678C100.289 23.5644 100.32 12.8628 100.3 2.1611C100.3 1.75661 99.9163 1.17876 99.5567 1.00541C99.2661 0.866728 98.6979 1.1474 98.3384 1.37523C98.056 1.55189 97.8967 1.93161 97.6882 2.22549C89.4851 13.7824 81.2837 25.3409 73.0807 36.8978C72.7966 37.2973 72.4797 37.677 72.1431 38.1096C71.9083 37.857 71.7852 37.753 71.6949 37.6259C64.6888 27.8702 57.686 18.1145 50.675 8.36219C50.2366 7.75133 49.8064 7.09919 49.2416 6.62206C43.1205 1.48585 36.0028 -0.449105 28.1446 0.29879C10.9602 1.92996 -0.925659 18.8179 3.2284 35.6166C6.26432 47.8966 16.5936 56.6336 29.202 57.4509C36.8057 57.9412 43.6574 55.9188 49.5191 50.8866C49.6981 50.733 49.8508 50.5745 49.9788 50.4094C49.3828 49.8993 48.7884 49.3809 48.2006 48.8592C48.0923 49.0754 47.9248 49.2802 47.754 49.4106C41.5935 54.1109 34.7188 56.3579 26.9739 55.0702C14.0503 52.9222 4.8966 42.1661 4.6421 29.0028C4.37939 15.3574 15.4837 3.23919 29.0197 2.34106C35.7368 1.89364 41.7315 3.74604 47.0382 7.86029C47.8164 8.4629 48.6029 9.1332 49.1743 9.92567C60.4297 25.5968 71.6571 41.291 82.8879 56.9803C83.0964 57.2726 83.2557 57.7068 83.5381 57.819C83.9945 58.0023 84.6135 58.1476 85.0125 57.9693C85.2539 57.8636 85.3639 57.0711 85.2539 56.6617C85.111 56.1466 84.7088 55.6942 84.382 55.2386C81.0112 50.5646 77.6518 45.8791 74.2366 41.2366C73.616 40.3913 73.593 39.825 74.2202 38.945C81.9142 28.2087 89.5672 17.4376 97.2301 6.67819C97.4665 6.34304 97.7309 6.031 97.9804 5.70576C98.0707 5.74208 98.166 5.77675 98.2563 5.81307C98.2563 6.31827 98.2563 6.82017 98.2563 7.32537C98.2563 23.6008 98.2579 39.8762 98.2612 56.1532C98.2612 56.5924 98.1939 57.0695 98.3433 57.4591C98.4599 57.7695 98.8621 58.1724 99.1347 58.1691C99.4844 58.1641 99.9245 57.8653 100.148 57.5598C100.33 57.3089 100.282 56.8697 100.282 56.5115C100.282 49.1002 100.271 41.684 100.279 34.2678Z" fill="#90ADC6"/>
</g>
<path d="M6.47902 77.9861C6.47902 77.9861 5.65478 78.7026 4.22959 78.7026C2.85202 78.7026 0.898131 78.0851 0.898131 74.8344C0.898131 71.6331 3.03756 70.9777 4.22959 70.9777C5.67941 70.9777 6.47902 71.5588 6.47902 71.5588V71.2864C6.47902 71.2864 5.63015 70.7795 4.22959 70.7795C2.01628 70.7795 0 71.9666 0 74.8344C0 78.1347 2.56961 78.9123 4.11794 78.9123C5.65478 78.9123 6.47902 78.2568 6.47902 78.2568V77.9861Z" fill="#1E3653"/>
<path d="M11.6034 70.7795C9.39012 70.7795 7.37384 71.9666 7.37384 74.8344C7.37384 78.1347 10.0535 78.9123 11.6034 78.9123C13.1386 78.9123 15.8314 78.1347 15.8314 74.8344C15.8314 71.9666 13.8036 70.7795 11.6034 70.7795ZM11.6034 78.7026C10.2144 78.7026 8.27197 78.0851 8.27197 74.8344C8.27197 71.6331 10.4114 70.9777 11.6034 70.9777C12.7955 70.9777 14.9332 71.6331 14.9332 74.8344C14.9332 78.0851 12.9794 78.7026 11.6034 78.7026Z" fill="#1E3653"/>
<path d="M23.1306 70.9281H22.9335V77.504L16.8863 70.7795H16.8617V78.6894H17.0587V72.1895L23.0944 78.9123H23.1306V70.9281Z" fill="#1E3653"/>
<path d="M29.6941 70.9282H24.064V71.1263H26.4365V78.6895H27.3215V71.1263H29.6941V70.9282Z" fill="#1E3653"/>
<path d="M35.9855 78.6895L33.0974 75.0326C34.007 74.9087 35.3829 74.463 35.3829 72.8698C35.3829 71.1627 33.5391 70.9282 32.9135 70.9282C32.3109 70.9282 30.577 70.9282 30.577 70.9282V78.6895H31.4505V75.0821H32.0153L34.8674 78.6895H35.9855ZM31.4505 71.1263H32.4455C33.7 71.1263 34.4487 71.6447 34.4487 73.0052C34.4487 74.3887 33.5637 74.884 32.127 74.884H31.4505V71.1263Z" fill="#1E3653"/>
<path d="M42.708 78.6894H43.6554L40.2747 70.7795H40.2139L36.7101 78.6894H36.981L38.3701 75.5756H41.3682L42.708 78.6894ZM38.4554 75.366L39.8938 72.1152L41.2828 75.366H38.4554Z" fill="#1E3653"/>
<path d="M44.4034 78.1101V78.394C44.4034 78.394 45.1538 78.9999 46.4805 78.9999C47.8088 78.9999 49.0747 78.0721 49.0747 76.7001C49.0747 73.9314 45.1292 74.747 45.1292 72.4984C45.1292 71.62 45.7318 70.9035 46.7875 70.9035C47.8334 70.9035 48.5082 71.4104 48.5082 71.4104L48.4968 71.1512C48.4968 71.1512 47.7595 70.6938 46.776 70.6938C45.804 70.6938 44.4396 71.2866 44.4396 72.8319C44.4396 75.6006 48.3736 74.5621 48.3736 77.0089C48.3736 78.2091 47.464 78.8018 46.4805 78.8018C45.4231 78.8018 44.8336 78.4436 44.4034 78.1101Z" fill="#1E3653"/>
<path d="M55.4779 70.9282H49.8477V71.1263H52.2203V78.6895H53.1053V71.1263H55.4779V70.9282Z" fill="#1E3653"/>
<path d="M67.1407 70.7795H67.1161L63.6615 77.3554L60.2578 70.7795H60.22L59.1626 78.6894H59.3596L60.1839 72.5593L63.2444 78.4797H63.2937L66.4527 72.4619L67.1768 78.6894H68.0618L67.1407 70.7795Z" fill="#1E3653"/>
<path d="M74.8702 78.6894H75.8176L72.4369 70.7795H72.3761L68.8723 78.6894H69.1432L70.5322 75.5756H73.5304L74.8702 78.6894ZM70.6176 75.366L72.0559 72.1152L73.445 75.366H70.6176Z" fill="#1E3653"/>
<path d="M82.1333 78.6895L79.2452 75.0326C80.1548 74.9087 81.5308 74.463 81.5308 72.8698C81.5308 71.1627 79.6869 70.9282 79.0613 70.9282C78.4587 70.9282 76.7249 70.9282 76.7249 70.9282V78.6895H77.5984V75.0821H78.1632L81.0152 78.6895H82.1333ZM77.5984 71.1263H78.5934C79.8478 71.1263 80.5965 71.6447 80.5965 73.0052C80.5965 74.3887 79.7115 74.884 78.2748 74.884H77.5984V71.1263Z" fill="#1E3653"/>
<path d="M83.0172 78.6895H83.8907V70.9282H83.0172V78.6895ZM84.8496 74.2038L88.0201 70.9282H87.7377L84.0992 74.6859L87.5046 78.6895H88.6588L84.8496 74.2038Z" fill="#1E3653"/>
<path d="M93.4647 71.1263V70.9282H89.5553V78.6895H93.4647V78.493H90.4288V74.7354H93.1331V74.5373H90.4288V71.1263H93.4647Z" fill="#1E3653"/>
<path d="M99.9052 70.9282H94.275V71.1263H96.6476V78.6895H97.5326V71.1263H99.9052V70.9282Z" fill="#1E3653"/>
<path d="M100.911 78.6895H101.785V70.9282H100.911V78.6895Z" fill="#1E3653"/>
<path d="M109.294 70.9281H109.097V77.504L103.049 70.7795H103.025V78.6894H103.222V72.1895L109.258 78.9123H109.294V70.9281Z" fill="#1E3653"/>
<path d="M115.021 74.7353V74.945H116.126V78.4186C115.709 78.5788 115.156 78.7026 114.542 78.7026C112.624 78.7026 111.211 77.7384 111.211 74.8344C111.211 71.6331 113.238 70.9777 114.542 70.9777C115.992 70.9777 116.791 71.3244 116.791 71.3244V71.0767C116.791 71.0767 115.943 70.7795 114.542 70.7795C112.329 70.7795 110.312 71.9666 110.312 74.8344C110.312 78.1347 112.882 78.9123 114.43 78.9123C115.967 78.9123 117 78.2568 117 78.2568V74.7353H115.021Z" fill="#1E3653"/>
</svg>
