<svg width="16" height="17" viewBox="0 0 16 17" fill="none" xmlns="http://www.w3.org/2000/svg">
<path d="M7.59425 0C5.11379 0 3.09576 2.01081 3.09576 4.48242C3.09576 6.95403 5.11379 8.96484 7.59425 8.96484C10.0747 8.96484 12.0927 6.95403 12.0927 4.48242C12.0927 2.01081 10.0747 0 7.59425 0Z" fill="#A4AABE"/>
<path d="M13.1912 11.8932C11.9596 10.6471 10.327 9.96094 8.59391 9.96094H6.59459C4.86157 9.96094 3.22885 10.6471 1.99727 11.8932C0.771711 13.1331 0.0967712 14.7698 0.0967712 16.502C0.0967712 16.777 0.320563 17 0.596603 17H14.5919C14.8679 17 15.0917 16.777 15.0917 16.502C15.0917 14.7698 14.4168 13.1331 13.1912 11.8932Z" fill="#A4AABE"/>
</svg>
