<svg width="42" height="42" viewBox="0 0 42 42" fill="none" xmlns="http://www.w3.org/2000/svg">
<circle cx="21" cy="21" r="21" fill="white" fill-opacity="0.1"/>
<path d="M29.2282 15.6471C28.5941 15.9353 27.9106 16.1247 27.2024 16.2153C27.9271 15.7788 28.4871 15.0871 28.7506 14.2553C28.0671 14.6671 27.3094 14.9553 26.5106 15.12C25.86 14.4118 24.9459 14 23.9082 14C21.9729 14 20.3918 15.5812 20.3918 17.5329C20.3918 17.8129 20.4247 18.0847 20.4824 18.34C17.5506 18.1918 14.94 16.7835 13.2024 14.6506C12.8976 15.1694 12.7247 15.7788 12.7247 16.4212C12.7247 17.6482 13.3424 18.7353 14.2976 19.3529C13.7129 19.3529 13.1694 19.1882 12.6918 18.9412V18.9659C12.6918 20.6788 13.9106 22.1118 15.5247 22.4329C15.0065 22.5748 14.4624 22.5945 13.9353 22.4906C14.159 23.1926 14.597 23.8069 15.1879 24.2471C15.7788 24.6873 16.4927 24.9313 17.2294 24.9447C15.9806 25.9333 14.4327 26.4677 12.84 26.46C12.56 26.46 12.28 26.4435 12 26.4106C13.5647 27.4153 15.4259 28 17.4188 28C23.9082 28 27.4741 22.6141 27.4741 17.9447C27.4741 17.7882 27.4741 17.64 27.4659 17.4835C28.1576 16.9894 28.7506 16.3635 29.2282 15.6471Z" fill="white"/>
</svg>
