<svg xmlns="http://www.w3.org/2000/svg" xmlns:xlink="http://www.w3.org/1999/xlink" width="500" zoomAndPan="magnify" viewBox="0 0 375 374.999991" height="500" preserveAspectRatio="xMidYMid meet" version="1.0"><defs><clipPath id="b0d4bb4e02"><path d="M 69 116 L 188.386719 116 L 188.386719 260 L 69 260 Z M 69 116 " clip-rule="nonzero"/></clipPath><clipPath id="f7bdd7f346"><path d="M 189.257812 116 L 313.007812 116 L 313.007812 260 L 189.257812 260 Z M 189.257812 116 " clip-rule="nonzero"/></clipPath></defs><g clip-path="url(#b0d4bb4e02)"><path fill="#ffffff" d="M 313.519531 200.808594 C 313.546875 174.320312 313.625 147.835938 313.574219 121.347656 C 313.574219 120.347656 312.617188 118.917969 311.722656 118.488281 C 311 118.144531 309.585938 118.839844 308.691406 119.402344 C 307.988281 119.839844 307.59375 120.78125 307.074219 121.507812 C 286.660156 150.109375 266.25 178.714844 245.835938 207.316406 C 245.128906 208.308594 244.339844 209.246094 243.503906 210.316406 C 242.917969 209.691406 242.613281 209.433594 242.386719 209.121094 C 224.953125 184.976562 207.527344 160.832031 190.078125 136.695312 C 188.988281 135.183594 187.917969 133.570312 186.511719 132.390625 C 171.277344 119.675781 153.566406 114.886719 134.007812 116.738281 C 91.246094 120.777344 61.667969 162.570312 72.003906 204.148438 C 79.558594 234.539062 105.265625 256.164062 136.640625 258.183594 C 155.5625 259.398438 172.613281 254.394531 187.203125 241.941406 C 187.648438 241.558594 188.027344 241.167969 188.347656 240.757812 C 186.863281 239.496094 185.382812 238.214844 183.921875 236.921875 C 183.652344 237.457031 183.234375 237.964844 182.808594 238.285156 C 167.480469 249.917969 150.371094 255.480469 131.097656 252.292969 C 98.933594 246.976562 76.15625 220.355469 75.523438 187.777344 C 74.867188 154.007812 102.503906 124.015625 136.1875 121.792969 C 152.902344 120.6875 167.820312 125.269531 181.027344 135.453125 C 182.964844 136.945312 184.921875 138.601562 186.34375 140.566406 C 214.355469 179.351562 242.292969 218.191406 270.242188 257.019531 C 270.761719 257.746094 271.15625 258.820312 271.859375 259.097656 C 272.996094 259.550781 274.535156 259.910156 275.53125 259.46875 C 276.128906 259.207031 276.402344 257.246094 276.128906 256.234375 C 275.773438 254.957031 274.773438 253.835938 273.960938 252.710938 C 265.570312 241.144531 257.210938 229.546875 248.714844 218.054688 C 247.167969 215.964844 247.109375 214.5625 248.671875 212.386719 C 267.820312 185.8125 286.863281 159.15625 305.933594 132.527344 C 306.523438 131.699219 307.179688 130.925781 307.800781 130.121094 C 308.027344 130.210938 308.261719 130.296875 308.488281 130.386719 C 308.488281 131.636719 308.488281 132.878906 308.488281 134.128906 C 308.488281 174.410156 308.492188 214.691406 308.5 254.972656 C 308.5 256.0625 308.332031 257.242188 308.703125 258.207031 C 308.996094 258.972656 309.996094 259.972656 310.671875 259.960938 C 311.542969 259.949219 312.640625 259.210938 313.195312 258.457031 C 313.648438 257.835938 313.53125 256.746094 313.53125 255.859375 C 313.53125 237.519531 313.5 219.164062 313.519531 200.808594 Z M 313.519531 200.808594 " fill-opacity="1" fill-rule="nonzero"/></g><g clip-path="url(#f7bdd7f346)"><path fill="#000000" d="M 313.519531 200.808594 C 313.546875 174.320312 313.625 147.835938 313.574219 121.347656 C 313.574219 120.347656 312.617188 118.917969 311.722656 118.488281 C 311 118.144531 309.585938 118.839844 308.691406 119.402344 C 307.988281 119.839844 307.59375 120.78125 307.074219 121.507812 C 286.660156 150.109375 266.25 178.714844 245.835938 207.316406 C 245.128906 208.308594 244.339844 209.246094 243.503906 210.316406 C 242.917969 209.691406 242.613281 209.433594 242.386719 209.121094 C 224.953125 184.976562 207.527344 160.832031 190.078125 136.695312 C 188.988281 135.183594 187.917969 133.570312 186.511719 132.390625 C 171.277344 119.675781 153.566406 114.886719 134.007812 116.738281 C 91.246094 120.777344 61.667969 162.570312 72.003906 204.148438 C 79.558594 234.539062 105.265625 256.164062 136.640625 258.183594 C 155.5625 259.398438 172.613281 254.394531 187.203125 241.941406 C 187.648438 241.558594 188.027344 241.167969 188.347656 240.757812 C 186.863281 239.496094 185.382812 238.214844 183.921875 236.921875 C 183.652344 237.457031 183.234375 237.964844 182.808594 238.285156 C 167.480469 249.917969 150.371094 255.480469 131.097656 252.292969 C 98.933594 246.976562 76.15625 220.355469 75.523438 187.777344 C 74.867188 154.007812 102.503906 124.015625 136.1875 121.792969 C 152.902344 120.6875 167.820312 125.269531 181.027344 135.453125 C 182.964844 136.945312 184.921875 138.601562 186.34375 140.566406 C 214.355469 179.351562 242.292969 218.191406 270.242188 257.019531 C 270.761719 257.746094 271.15625 258.820312 271.859375 259.097656 C 272.996094 259.550781 274.535156 259.910156 275.53125 259.46875 C 276.128906 259.207031 276.402344 257.246094 276.128906 256.234375 C 275.773438 254.957031 274.773438 253.835938 273.960938 252.710938 C 265.570312 241.144531 257.210938 229.546875 248.714844 218.054688 C 247.167969 215.964844 247.109375 214.5625 248.671875 212.386719 C 267.820312 185.8125 286.863281 159.15625 305.933594 132.527344 C 306.523438 131.699219 307.179688 130.925781 307.800781 130.121094 C 308.027344 130.210938 308.261719 130.296875 308.488281 130.386719 C 308.488281 131.636719 308.488281 132.878906 308.488281 134.128906 C 308.488281 174.410156 308.492188 214.691406 308.5 254.972656 C 308.5 256.0625 308.332031 257.242188 308.703125 258.207031 C 308.996094 258.972656 309.996094 259.972656 310.671875 259.960938 C 311.542969 259.949219 312.640625 259.210938 313.195312 258.457031 C 313.648438 257.835938 313.53125 256.746094 313.53125 255.859375 C 313.53125 237.519531 313.5 219.164062 313.519531 200.808594 Z M 313.519531 200.808594 " fill-opacity="1" fill-rule="nonzero"/></g></svg>